<svg xmlns="http://www.w3.org/2000/svg" width="8.26761in" height="8.26755in" viewBox="0 0 595.26807 595.26367">
  <path d="M184.38818,234.36816a50,50,0,0,1-.01025-100h.01025a50,50,0,1,1,0,100Z" transform="translate(-134.3833 -134.36816)" fill="#fff"/>
  <path d="M432.02,234.36816a50,50,0,0,1-.01025-100H432.02a50,50,0,0,1,0,100Z" transform="translate(-134.3833 -134.36816)" fill="#fff"/>
  <path d="M679.65137,234.36816a50,50,0,1,1-.00977-100h.00977a50,50,0,0,1,0,100Z" transform="translate(-134.3833 -134.36816)" fill="#fff"/>
  <path d="M184.38818,482a50,50,0,0,1-.01025-100h.01025a50,50,0,1,1,0,100Z" transform="translate(-134.3833 -134.36816)" fill="#fff"/>
  <path d="M432.02,482a50,50,0,0,1-.01025-100H432.02a50,50,0,0,1,0,100Z" transform="translate(-134.3833 -134.36816)" fill="#fff"/>
  <path d="M679.65137,482a50,50,0,1,1-.00977-100h.00977a50,50,0,0,1,0,100Z" transform="translate(-134.3833 -134.36816)" fill="#fff"/>
  <path d="M184.38818,729.63184a50,50,0,0,1-.01025-100h.01025a50,50,0,1,1,0,100Z" transform="translate(-134.3833 -134.36816)" fill="#fff"/>
  <path d="M432.02,729.63184a50,50,0,0,1-.01025-100H432.02a50,50,0,0,1,0,100Z" transform="translate(-134.3833 -134.36816)" fill="#fff"/>
  <path d="M679.65137,729.63184a50,50,0,1,1-.00977-100h.00977a50,50,0,0,1,0,100Z" transform="translate(-134.3833 -134.36816)" fill="#fff"/>
</svg>
